# Blender v2.82 (sub 7) OBJ File: 'rod.blend'
# www.blender.org
mtllib rod.mtl
o Cube_Cube.001
v -0.002500 0.020000 0.000000
v -0.002500 0.025000 0.005000
v -0.002500 0.020062 0.000782
v -0.002500 0.020245 0.001545
v -0.002500 0.020545 0.002270
v -0.002500 0.020955 0.002939
v -0.002500 0.021464 0.003536
v -0.002500 0.022061 0.004045
v -0.002500 0.022730 0.004455
v -0.002500 0.023455 0.004755
v -0.002500 0.024218 0.004938
v -0.002500 0.025000 -0.005000
v -0.002500 0.020000 0.000000
v -0.002500 0.024218 -0.004938
v -0.002500 0.023455 -0.004755
v -0.002500 0.022730 -0.004455
v -0.002500 0.022061 -0.004045
v -0.002500 0.021464 -0.003536
v -0.002500 0.020955 -0.002939
v -0.002500 0.020545 -0.002270
v -0.002500 0.020245 -0.001545
v -0.002500 0.020062 -0.000782
v 0.002500 0.025000 0.005000
v 0.002500 0.020000 0.000000
v 0.002500 0.024218 0.004938
v 0.002500 0.023455 0.004755
v 0.002500 0.022730 0.004455
v 0.002500 0.022061 0.004045
v 0.002500 0.021464 0.003536
v 0.002500 0.020955 0.002939
v 0.002500 0.020545 0.002270
v 0.002500 0.020245 0.001545
v 0.002500 0.020062 0.000782
v 0.002500 0.020000 0.000000
v 0.002500 0.025000 -0.005000
v 0.002500 0.020062 -0.000782
v 0.002500 0.020245 -0.001545
v 0.002500 0.020545 -0.002270
v 0.002500 0.020955 -0.002939
v 0.002500 0.021464 -0.003536
v 0.002500 0.022061 -0.004045
v 0.002500 0.022730 -0.004455
v 0.002500 0.023455 -0.004755
v 0.002500 0.024218 -0.004938
v -0.002500 0.315000 0.005000
v -0.002500 0.320000 0.000000
v -0.002500 0.315782 0.004938
v -0.002500 0.316545 0.004755
v -0.002500 0.317270 0.004455
v -0.002500 0.317939 0.004045
v -0.002500 0.318536 0.003536
v -0.002500 0.319045 0.002939
v -0.002500 0.319455 0.002270
v -0.002500 0.319755 0.001545
v -0.002500 0.319938 0.000782
v -0.002500 0.320000 0.000000
v -0.002500 0.315000 -0.005000
v -0.002500 0.319938 -0.000782
v -0.002500 0.319755 -0.001545
v -0.002500 0.319455 -0.002270
v -0.002500 0.319045 -0.002939
v -0.002500 0.318536 -0.003536
v -0.002500 0.317939 -0.004045
v -0.002500 0.317270 -0.004455
v -0.002500 0.316545 -0.004755
v -0.002500 0.315782 -0.004938
v 0.002500 0.320000 0.000000
v 0.002500 0.315000 0.005000
v 0.002500 0.319938 0.000782
v 0.002500 0.319755 0.001545
v 0.002500 0.319455 0.002270
v 0.002500 0.319045 0.002939
v 0.002500 0.318536 0.003536
v 0.002500 0.317939 0.004045
v 0.002500 0.317270 0.004455
v 0.002500 0.316545 0.004755
v 0.002500 0.315782 0.004938
v 0.002500 0.315000 -0.005000
v 0.002500 0.320000 0.000000
v 0.002500 0.315782 -0.004938
v 0.002500 0.316545 -0.004755
v 0.002500 0.317270 -0.004455
v 0.002500 0.317939 -0.004045
v 0.002500 0.318536 -0.003536
v 0.002500 0.319045 -0.002939
v 0.002500 0.319455 -0.002270
v 0.002500 0.319755 -0.001545
v 0.002500 0.319938 -0.000782
v -0.002500 0.028696 -0.001531
v 0.002500 0.028696 -0.001531
v -0.002500 0.028326 -0.002222
v 0.002500 0.028326 -0.002222
v -0.002500 0.023469 -0.003696
v 0.002500 0.023469 -0.003696
v -0.002500 0.024220 -0.003923
v 0.002500 0.024220 -0.003923
v -0.002500 0.028923 -0.000780
v 0.002500 0.028923 -0.000780
v -0.002500 0.022172 -0.002828
v 0.002500 0.022172 -0.002828
v 0.002500 0.022778 0.003326
v -0.002500 0.022778 0.003326
v 0.002500 0.023469 0.003696
v -0.002500 0.023469 0.003696
v -0.002500 0.021674 -0.002222
v 0.002500 0.021674 -0.002222
v -0.002500 0.024220 0.003923
v 0.002500 0.024220 0.003923
v -0.002500 0.026531 0.003696
v 0.002500 0.026531 0.003696
v -0.002500 0.029000 -0.000000
v 0.002500 0.029000 -0.000000
v -0.002500 0.026531 -0.003696
v 0.002500 0.026531 -0.003696
v -0.002500 0.027222 0.003326
v 0.002500 0.027222 0.003326
v -0.002500 0.021077 0.000780
v 0.002500 0.021077 0.000780
v 0.002500 0.022172 0.002828
v -0.002500 0.022172 0.002828
v 0.002500 0.021304 0.001531
v -0.002500 0.021304 0.001531
v -0.002500 0.021000 -0.000000
v 0.002500 0.021000 -0.000000
v -0.002500 0.027828 -0.002828
v 0.002500 0.027828 -0.002828
v -0.002500 0.027222 -0.003326
v 0.002500 0.027222 -0.003326
v -0.002500 0.025000 0.004000
v 0.002500 0.025000 0.004000
v -0.002500 0.025000 -0.004000
v 0.002500 0.025000 -0.004000
v -0.002500 0.021077 -0.000780
v 0.002500 0.021077 -0.000780
v -0.002500 0.022778 -0.003326
v 0.002500 0.022778 -0.003326
v -0.002500 0.021304 -0.001531
v 0.002500 0.021304 -0.001531
v -0.002500 0.028696 0.001531
v 0.002500 0.028696 0.001531
v -0.002500 0.028326 0.002222
v 0.002500 0.028326 0.002222
v -0.002500 0.028923 0.000780
v 0.002500 0.028923 0.000780
v -0.002500 0.027828 0.002828
v 0.002500 0.027828 0.002828
v -0.002500 0.025780 0.003923
v 0.002500 0.025780 0.003923
v 0.002500 0.021674 0.002222
v -0.002500 0.021674 0.002222
v -0.002500 0.025780 -0.003923
v 0.002500 0.025780 -0.003923
vt 0.375000 0.125000
vt 0.375051 0.105446
vt 0.375204 0.086373
vt 0.375454 0.068251
vt 0.375796 0.051527
vt 0.376220 0.036612
vt 0.376718 0.023873
vt 0.377275 0.013624
vt 0.377879 0.006118
vt 0.378515 0.001539
vt 0.379167 0.000000
vt 0.379167 0.025000
vt 0.378517 0.026922
vt 0.377890 0.032612
vt 0.377315 0.041853
vt 0.376810 0.054289
vt 0.376395 0.069443
vt 0.376087 0.086732
vt 0.375897 0.105491
vt 0.375833 0.125000
vt 0.375897 0.144509
vt 0.376087 0.163268
vt 0.376395 0.180557
vt 0.376810 0.195711
vt 0.377315 0.208147
vt 0.377890 0.217388
vt 0.378517 0.223078
vt 0.379167 0.225000
vt 0.379167 0.250000
vt 0.378515 0.248461
vt 0.377879 0.243882
vt 0.377275 0.236376
vt 0.376718 0.226127
vt 0.376220 0.213388
vt 0.375796 0.198473
vt 0.375454 0.181749
vt 0.375204 0.163627
vt 0.375051 0.144554
vt 0.375000 0.125000
vt 0.375000 0.625000
vt 0.375051 0.605446
vt 0.375204 0.586373
vt 0.375454 0.568251
vt 0.375796 0.551527
vt 0.376220 0.536612
vt 0.376718 0.523873
vt 0.377275 0.513624
vt 0.377879 0.506118
vt 0.378515 0.501539
vt 0.379167 0.500000
vt 0.379167 0.525000
vt 0.378517 0.526922
vt 0.377890 0.532612
vt 0.377315 0.541853
vt 0.376810 0.554289
vt 0.376395 0.569443
vt 0.376087 0.586731
vt 0.375897 0.605491
vt 0.375833 0.625000
vt 0.375897 0.644509
vt 0.376087 0.663268
vt 0.376396 0.680557
vt 0.376810 0.695711
vt 0.377315 0.708147
vt 0.377890 0.717388
vt 0.378517 0.723078
vt 0.379167 0.725000
vt 0.379167 0.750000
vt 0.378515 0.748461
vt 0.377879 0.743882
vt 0.377275 0.736376
vt 0.376718 0.726127
vt 0.376220 0.713388
vt 0.375796 0.698473
vt 0.375454 0.681749
vt 0.375204 0.663627
vt 0.375051 0.644554
vt 0.375000 0.625000
vt 0.620833 0.250000
vt 0.620833 0.500000
vt 0.620833 0.750000
vt 0.620833 1.000000
vt 0.379167 1.000000
vt 0.125000 0.625000
vt 0.125000 0.605446
vt 0.375000 0.605446
vt 0.125000 0.586373
vt 0.375000 0.586373
vt 0.125000 0.568251
vt 0.375000 0.568251
vt 0.125000 0.551527
vt 0.375000 0.551527
vt 0.125000 0.500000
vt 0.375000 0.500000
vt 0.375000 0.250000
vt 0.376718 0.250000
vt 0.376718 0.500000
vt 0.377275 0.250000
vt 0.377275 0.500000
vt 0.377879 0.250000
vt 0.377879 0.500000
vt 0.378515 0.250000
vt 0.378515 0.500000
vt 0.125000 0.625000
vt 0.375000 0.644554
vt 0.125000 0.644554
vt 0.375000 0.663627
vt 0.125000 0.663627
vt 0.375000 0.681749
vt 0.125000 0.681749
vt 0.375000 0.698473
vt 0.125000 0.698473
vt 0.375000 0.750000
vt 0.125000 0.750000
vt 0.375000 1.000000
vt 0.376718 0.750000
vt 0.376718 1.000000
vt 0.377275 0.750000
vt 0.377275 1.000000
vt 0.377879 0.750000
vt 0.377879 1.000000
vt 0.378515 0.750000
vt 0.378515 1.000000
vt 0.875000 0.625000
vt 0.625000 0.625000
vt 0.625000 0.605446
vt 0.875000 0.605446
vt 0.625000 0.586373
vt 0.875000 0.586373
vt 0.625000 0.568251
vt 0.875000 0.568251
vt 0.625000 0.551527
vt 0.875000 0.551527
vt 0.625000 0.500000
vt 0.875000 0.500000
vt 0.625000 0.250000
vt 0.623282 0.500000
vt 0.623282 0.250000
vt 0.622725 0.500000
vt 0.622725 0.250000
vt 0.622121 0.500000
vt 0.622121 0.250000
vt 0.621485 0.500000
vt 0.621485 0.250000
vt 0.625000 0.625000
vt 0.875000 0.625000
vt 0.875000 0.644554
vt 0.625000 0.644554
vt 0.875000 0.663627
vt 0.625000 0.663627
vt 0.875000 0.681749
vt 0.625000 0.681749
vt 0.875000 0.698473
vt 0.625000 0.698473
vt 0.875000 0.750000
vt 0.625000 0.750000
vt 0.625000 1.000000
vt 0.623282 1.000000
vt 0.623282 0.750000
vt 0.622725 1.000000
vt 0.622725 0.750000
vt 0.622121 1.000000
vt 0.622121 0.750000
vt 0.621485 1.000000
vt 0.621485 0.750000
vt 0.718750 0.656250
vt 0.718750 0.718750
vt 0.750000 0.718750
vt 0.750000 0.656250
vt 0.379817 0.223078
vt 0.380442 0.217388
vt 0.381019 0.208147
vt 0.381523 0.195711
vt 0.381938 0.180557
vt 0.382247 0.163268
vt 0.382438 0.144508
vt 0.382498 0.125000
vt 0.382437 0.105492
vt 0.382247 0.086732
vt 0.381938 0.069443
vt 0.381524 0.054289
vt 0.381019 0.041853
vt 0.380442 0.032612
vt 0.379817 0.026922
vt 0.620833 0.000000
vt 0.621485 0.001539
vt 0.622121 0.006118
vt 0.622725 0.013624
vt 0.623282 0.023873
vt 0.623779 0.036612
vt 0.624204 0.051527
vt 0.624546 0.068251
vt 0.624796 0.086373
vt 0.624949 0.105446
vt 0.625000 0.125000
vt 0.625000 0.125000
vt 0.624949 0.144554
vt 0.624796 0.163627
vt 0.624546 0.181749
vt 0.624204 0.198473
vt 0.623779 0.213388
vt 0.623282 0.226127
vt 0.622725 0.236376
vt 0.622121 0.243882
vt 0.621485 0.248461
vt 0.625000 0.656250
vt 0.625000 0.718750
vt 0.656250 0.718750
vt 0.656250 0.656250
vt 0.687500 0.718750
vt 0.687500 0.656250
vt 0.218750 0.656250
vt 0.218750 0.718750
vt 0.250000 0.718750
vt 0.250000 0.656250
vt 0.781250 0.656250
vt 0.781250 0.718750
vt 0.812500 0.718750
vt 0.812500 0.656250
vt 0.843750 0.656250
vt 0.843750 0.718750
vt 0.875000 0.718750
vt 0.875000 0.656250
vt 0.000000 0.656250
vt 0.000000 0.718750
vt 0.031250 0.718750
vt 0.031250 0.656250
vt 0.468750 0.656250
vt 0.468750 0.718750
vt 0.500000 0.718750
vt 0.500000 0.656250
vt 0.156250 0.656250
vt 0.156250 0.718750
vt 0.187500 0.718750
vt 0.187500 0.656250
vt 0.531250 0.718750
vt 0.531250 0.656250
vt 0.062500 0.718750
vt 0.062500 0.656250
vt 0.906250 0.718750
vt 0.906250 0.656250
vt 0.406250 0.656250
vt 0.406250 0.718750
vt 0.437500 0.718750
vt 0.437500 0.656250
vt 0.937500 0.718750
vt 0.937500 0.656250
vt 0.593750 0.656250
vt 0.593750 0.718750
vt 0.093750 0.656250
vt 0.093750 0.718750
vt 0.125000 0.718750
vt 0.125000 0.656250
vt 0.379817 0.723079
vt 0.380442 0.717388
vt 0.381019 0.708147
vt 0.381524 0.695711
vt 0.381938 0.680557
vt 0.382247 0.663268
vt 0.382436 0.644508
vt 0.382498 0.625000
vt 0.382436 0.605491
vt 0.382247 0.586732
vt 0.381938 0.569443
vt 0.381523 0.554289
vt 0.381019 0.541853
vt 0.380442 0.532612
vt 0.379817 0.526922
vt 0.621485 0.501539
vt 0.622121 0.506118
vt 0.622725 0.513624
vt 0.623282 0.523873
vt 0.623779 0.536612
vt 0.624204 0.551527
vt 0.624546 0.568251
vt 0.624796 0.586373
vt 0.624949 0.605446
vt 0.624949 0.644554
vt 0.624796 0.663627
vt 0.624546 0.681749
vt 0.624204 0.698473
vt 0.623779 0.713388
vt 0.623282 0.726127
vt 0.622725 0.736376
vt 0.622121 0.743882
vt 0.621485 0.748461
vt 0.562500 0.656250
vt 0.562500 0.718750
vt 0.375000 0.656250
vt 0.375000 0.718750
vt 0.312500 0.656250
vt 0.312500 0.718750
vt 0.343750 0.718750
vt 0.343750 0.656250
vt 0.968750 0.656250
vt 0.968750 0.718750
vt 1.000000 0.718750
vt 1.000000 0.656250
vt 0.281250 0.718750
vt 0.281250 0.656250
vn -1.0000 -0.0000 -0.0000
vn 1.0000 0.0000 0.0000
vn 0.0000 0.0000 -1.0000
vn 0.0000 0.0000 1.0000
vn 0.0000 -0.9969 -0.0785
vn 0.0000 -0.9724 -0.2335
vn 0.0000 -0.9239 -0.3827
vn 0.0000 -0.8526 -0.5225
vn 0.0000 -0.7604 -0.6495
vn 0.0000 -0.6495 -0.7604
vn 0.0000 -0.5225 -0.8526
vn 0.0000 -0.3827 -0.9239
vn 0.0000 -0.2334 -0.9724
vn 0.0000 -0.0785 -0.9969
vn 0.0000 -0.9969 0.0785
vn 0.0000 -0.9724 0.2335
vn 0.0000 -0.9239 0.3827
vn 0.0000 -0.8526 0.5225
vn 0.0000 -0.7604 0.6495
vn 0.0000 -0.6495 0.7604
vn 0.0000 -0.5225 0.8526
vn 0.0000 -0.3827 0.9239
vn 0.0000 -0.2334 0.9724
vn 0.0000 -0.0785 0.9969
vn 0.0000 0.9969 -0.0784
vn 0.0000 0.9724 -0.2335
vn 0.0000 0.9239 -0.3827
vn 0.0000 0.8526 -0.5225
vn 0.0000 0.7604 -0.6494
vn 0.0000 0.6494 -0.7604
vn 0.0000 0.5225 -0.8526
vn 0.0000 0.3827 -0.9239
vn 0.0000 0.2334 -0.9724
vn 0.0000 0.0785 -0.9969
vn 0.0000 0.9969 0.0784
vn 0.0000 0.9724 0.2335
vn 0.0000 0.9239 0.3827
vn 0.0000 0.8526 0.5225
vn 0.0000 0.7604 0.6494
vn 0.0000 0.6494 0.7604
vn 0.0000 0.5225 0.8526
vn 0.0000 0.3827 0.9239
vn 0.0000 0.2334 0.9724
vn 0.0000 0.0785 0.9969
vn 0.0000 0.9952 -0.0980
vn 0.0000 0.7730 -0.6344
vn 0.0000 0.8819 -0.4714
vn 0.0000 -0.9952 0.0980
vn -0.0000 0.9569 0.2903
vn 0.0000 0.9952 0.0980
vn 0.0000 0.7730 0.6344
vn 0.0000 -0.0980 0.9952
vn 0.0000 -0.0980 -0.9952
vn 0.0000 -0.8819 0.4714
vn 0.0000 0.0980 -0.9952
vn 0.0000 -0.2903 0.9569
vn 0.0000 0.6344 0.7730
vn 0.0000 -0.4714 -0.8819
vn 0.0000 0.4714 0.8819
vn 0.0000 0.6344 -0.7730
vn 0.0000 -0.6344 0.7730
vn 0.0000 -0.9569 0.2903
vn 0.0000 0.4714 -0.8819
vn 0.0000 -0.6344 -0.7730
vn 0.0000 -0.8819 -0.4714
vn 0.0000 0.0980 0.9952
vn 0.0000 0.8819 0.4714
vn 0.0000 -0.9952 -0.0980
vn 0.0000 0.9569 -0.2903
vn 0.0000 -0.2903 -0.9569
vn 0.0000 -0.4714 0.8819
vn 0.0000 0.2903 0.9569
vn 0.0000 0.2903 -0.9569
vn 0.0000 -0.9569 -0.2903
vn 0.0000 -0.7730 0.6344
vn 0.0000 -0.7730 -0.6344
usemtl None
s off
f 1/1/1 3/2/1 4/3/1 5/4/1 6/5/1 7/6/1 8/7/1 9/8/1 10/9/1 11/10/1 2/11/1 129/12/1 107/13/1 104/14/1 102/15/1 120/16/1 150/17/1 122/18/1 117/19/1 123/20/1 133/21/1 137/22/1 105/23/1 99/24/1 135/25/1 93/26/1 95/27/1 131/28/1 12/29/1 14/30/1 15/31/1 16/32/1 17/33/1 18/34/1 19/35/1 20/36/1 21/37/1 22/38/1 13/39/1
f 34/40/2 36/41/2 37/42/2 38/43/2 39/44/2 40/45/2 41/46/2 42/47/2 43/48/2 44/49/2 35/50/2 132/51/2 96/52/2 94/53/2 136/54/2 100/55/2 106/56/2 138/57/2 134/58/2 124/59/2 118/60/2 121/61/2 149/62/2 119/63/2 101/64/2 103/65/2 108/66/2 130/67/2 23/68/2 25/69/2 26/70/2 27/71/2 28/72/2 29/73/2 30/74/2 31/75/2 32/76/2 33/77/2 24/78/2
f 12/29/3 57/79/3 78/80/3 35/50/3
f 23/68/4 68/81/4 45/82/4 2/83/4
f 34/40/5 13/84/5 22/85/5 36/86/5
f 36/86/6 22/85/6 21/87/6 37/88/6
f 37/88/7 21/87/7 20/89/7 38/90/7
f 38/90/8 20/89/8 19/91/8 39/92/8
f 39/92/9 19/91/9 18/93/9 40/94/9
f 40/94/10 18/95/10 17/96/10 41/97/10
f 41/97/11 17/96/11 16/98/11 42/99/11
f 42/99/12 16/98/12 15/100/12 43/101/12
f 43/101/13 15/100/13 14/102/13 44/103/13
f 44/103/14 14/102/14 12/29/14 35/50/14
f 1/104/15 24/78/15 33/105/15 3/106/15
f 3/106/16 33/105/16 32/107/16 4/108/16
f 4/108/17 32/107/17 31/109/17 5/110/17
f 5/110/18 31/109/18 30/111/18 6/112/18
f 6/112/19 30/111/19 29/113/19 7/114/19
f 7/115/20 29/113/20 28/116/20 8/117/20
f 8/117/21 28/116/21 27/118/21 9/119/21
f 9/119/22 27/118/22 26/120/22 10/121/22
f 10/121/23 26/120/23 25/122/23 11/123/23
f 11/123/24 25/122/24 23/68/24 2/83/24
f 13/84/4 34/40/4 24/78/4 1/104/4
f 56/124/25 79/125/25 88/126/25 58/127/25
f 58/127/26 88/126/26 87/128/26 59/129/26
f 59/129/27 87/128/27 86/130/27 60/131/27
f 60/131/28 86/130/28 85/132/28 61/133/28
f 61/133/29 85/132/29 84/134/29 62/135/29
f 62/136/30 84/134/30 83/137/30 63/138/30
f 63/138/31 83/137/31 82/139/31 64/140/31
f 64/140/32 82/139/32 81/141/32 65/142/32
f 65/142/33 81/141/33 80/143/33 66/144/33
f 66/144/34 80/143/34 78/80/34 57/79/34
f 67/145/35 46/146/35 55/147/35 69/148/35
f 69/148/36 55/147/36 54/149/36 70/150/36
f 70/150/37 54/149/37 53/151/37 71/152/37
f 71/152/38 53/151/38 52/153/38 72/154/38
f 72/154/39 52/153/39 51/155/39 73/156/39
f 73/156/40 51/157/40 50/158/40 74/159/40
f 74/159/41 50/158/41 49/160/41 75/161/41
f 75/161/42 49/160/42 48/162/42 76/163/42
f 76/163/43 48/162/43 47/164/43 77/165/43
f 77/165/44 47/164/44 45/82/44 68/81/44
f 79/125/4 56/124/4 46/146/4 67/145/4
f 117/166/45 118/167/45 124/168/45 123/169/45
f 12/29/1 131/28/1 151/170/1 113/171/1 127/172/1 125/173/1 91/174/1 89/175/1 97/176/1 111/177/1 143/178/1 139/179/1 141/180/1 145/181/1 115/182/1 109/183/1 147/184/1 129/12/1 2/11/1 45/185/1 47/186/1 48/187/1 49/188/1 50/189/1 51/190/1 52/191/1 53/192/1 54/193/1 55/194/1 46/195/1 56/196/1 58/197/1 59/198/1 60/199/1 61/200/1 62/201/1 63/202/1 64/203/1 65/204/1 66/205/1 57/79/1
f 120/206/46 119/207/46 149/208/46 150/209/46
f 150/209/47 149/208/47 121/210/47 122/211/47
f 97/212/48 98/213/48 112/214/48 111/215/48
f 133/216/49 134/217/49 138/218/49 137/219/49
f 123/169/50 124/168/50 134/217/50 133/216/50
f 105/220/51 106/221/51 100/222/51 99/223/51
f 131/224/52 132/225/52 152/226/52 151/227/52
f 147/228/53 148/229/53 130/230/53 129/231/53
f 91/232/54 92/233/54 90/234/54 89/235/54
f 129/231/55 130/230/55 108/236/55 107/237/55
f 151/227/56 152/226/56 114/238/56 113/239/56
f 99/223/57 100/222/57 136/240/57 135/241/57
f 115/242/58 116/243/58 110/244/58 109/245/58
f 135/241/59 136/240/59 94/246/59 93/247/59
f 102/248/60 101/249/60 119/207/60 120/206/60
f 127/250/61 128/251/61 126/252/61 125/253/61
f 89/235/62 90/234/62 98/213/62 97/212/62
f 23/68/2 130/67/2 148/254/2 110/255/2 116/256/2 146/257/2 142/258/2 140/259/2 144/260/2 112/261/2 98/262/2 90/263/2 92/264/2 126/265/2 128/266/2 114/267/2 152/268/2 132/51/2 35/50/2 78/80/2 80/269/2 81/270/2 82/271/2 83/272/2 84/273/2 85/274/2 86/275/2 87/276/2 88/277/2 79/125/2 67/145/2 69/278/2 70/279/2 71/280/2 72/281/2 73/282/2 74/283/2 75/284/2 76/285/2 77/286/2 68/81/2
f 104/287/63 103/288/63 101/249/63 102/248/63
f 145/289/64 146/290/64 116/243/64 115/242/64
f 139/291/65 140/292/65 142/293/65 141/294/65
f 95/295/66 96/296/66 132/297/66 131/298/66
f 137/219/67 138/218/67 106/221/67 105/220/67
f 111/215/68 112/214/68 144/299/68 143/300/68
f 122/211/69 121/210/69 118/167/69 117/166/69
f 109/245/70 110/244/70 148/229/70 147/228/70
f 113/239/71 114/238/71 128/251/71 127/250/71
f 93/247/72 94/246/72 96/296/72 95/295/72
f 107/237/73 108/236/73 103/288/73 104/287/73
f 143/300/74 144/299/74 140/292/74 139/291/74
f 125/253/75 126/252/75 92/233/75 91/232/75
f 141/294/76 142/293/76 146/290/76 145/289/76
